<svg xmlns="http://www.w3.org/2000/svg" viewBox="0 0 100 100"><circle cx="50" cy="50" r="46" fill="none" stroke="#14508f" stroke-width="4"></circle><path d="M50.00 32.00 C53.04 24.18 72.69 15.85 88.14 24.28" fill="none" stroke="#14508f" stroke-width="3.9" stroke-linecap="round"></path><path d="M62.73 37.27 C70.41 33.89 90.19 41.90 95.15 58.78" fill="none" stroke="#14508f" stroke-width="3.9" stroke-linecap="round"></path><path d="M68.00 50.00 C75.82 53.04 84.15 72.69 75.72 88.14" fill="none" stroke="#14508f" stroke-width="3.9" stroke-linecap="round"></path><path d="M62.73 62.73 C66.11 70.41 58.10 90.19 41.22 95.15" fill="none" stroke="#14508f" stroke-width="3.9" stroke-linecap="round"></path><path d="M50.00 68.00 C46.96 75.82 27.31 84.15 11.86 75.72" fill="none" stroke="#14508f" stroke-width="3.9" stroke-linecap="round"></path><path d="M37.27 62.73 C29.59 66.11 9.81 58.10 4.85 41.22" fill="none" stroke="#14508f" stroke-width="3.9" stroke-linecap="round"></path><path d="M32.00 50.00 C24.18 46.96 15.85 27.31 24.28 11.86" fill="none" stroke="#14508f" stroke-width="3.9" stroke-linecap="round"></path><path d="M37.27 37.27 C33.89 29.59 41.90 9.81 58.78 4.85" fill="none" stroke="#14508f" stroke-width="3.9" stroke-linecap="round"></path><circle cx="50" cy="50" r="16" fill="none" stroke="#14508f" stroke-width="3.9"></circle></svg>